<svg version="1.1" id="Layer_1" xmlns="http://www.w3.org/2000/svg" xmlns:xlink="http://www.w3.org/1999/xlink" x="0px" y="0px" viewBox="0 0 595.6765 242.76" enable-background="new 0 0 595.6765 242.76" xml:space="preserve">
<g>
	<path d="M95.4195,153.9693c-23.1357,0-42.127,17.6934-44.2014,40.2839c-0.1259,1.3529-0.1987,2.7234-0.1987,4.1116
		c0,24.5175,19.8762,44.3951,44.4001,44.3951c24.5173,0,44.3911-19.8777,44.3911-44.3951c0-1.3882-0.0706-2.7587-0.1941-4.1116
		C137.5397,171.6627,118.5509,153.9693,95.4195,153.9693z M95.4195,227.1871c-15.8954,0-28.8267-12.9298-28.8267-28.8221
		c0-0.8417,0.0425-1.7185,0.1323-2.682c1.3687-14.9053,13.7039-26.1409,28.6943-26.1409c14.986,0,27.3196,11.2363,28.6899,26.1372
		c0.0851,0.9398,0.1277,1.8226,0.1277,2.6857C124.2372,214.2573,111.3104,227.1871,95.4195,227.1871z" id="id_131"></path>
	<path d="M95.4195,185.1151c-6.8892,0-12.5588,5.1555-13.1884,12.012c-0.0441,0.4714-0.0654,0.876-0.0654,1.2379
		c0,7.3059,5.9464,13.2491,13.2538,13.2491c7.3029,0,13.2446-5.9432,13.2446-13.2491c0-0.3848-0.0212-0.8038-0.0624-1.26
		C107.9737,190.2697,102.3058,185.1151,95.4195,185.1151z" id="id_132"></path>
	<path d="M435.7293,198.3646c0-29.9473,24.3643-54.3115,54.3115-54.3115c29.9473,0,54.3116,24.3643,54.3116,54.3115v3h0.9509
		c-0.0066,0.1212-0.0203,0.2405-0.0276,0.3616l43.3015,1.083c8.938,0.2236,9.7048-30.4268,0.7666-30.6504l-0.5142-0.0129
		l5.8789-39.334c0.9009-5.4058-1.3672-10.8511-5.8394-14.0188l-9.8-6.9418c0,0-14.7935-22.296-20.1563-23.1727l-126.187-29.3999
		c-3.6533-0.5972-7.1592-1.886-10.3296-3.7976l-62.8369-37.887C340.3709,6.0245,318.3766-0.0608,295.9701,0.0005L69.9532,0.618
		c-0.4575,0.0012-0.9093,0.1034-1.3229,0.2993l-5.9241,2.8062c-2.5331,1.2-2.3112,4.875,0.3479,5.7612
		c2.3522,0.7842,2.8861,3.8706,0.9341,5.3993L16.0359,52.4371c-4.1796,3.2731-6.4926,8.3845-6.1925,13.6846l1.6602,29.3301
		L9.5406,96.722c-6.2371,4.0356-9.6936,11.2205-8.9545,18.6125l3.9414,43.1821c-6.4171,5.052-6.1851,29.5295,1.8018,29.7294
		l29.5074,0.738c-0.4797,3.058-0.7334,6.1899-0.7334,9.3805v3h5.0491h0.9509v-3c0-29.9473,24.3643-54.3115,54.3115-54.3115
		s54.3115,24.3643,54.3115,54.3115v3h0.9512h5.0488v-3c0-2.1587-0.1194-4.2897-0.3416-6.3904l274.3445,6.8618v2.5286h5.0488h0.9512
		V198.3646z M107.798,64.0257l4.0513-52.2327l121.9885-0.3333l4.4924,57.9192L107.798,64.0257z M149.371,79.4154l-0.2451,6.207
		l-33.7944-1.334l0.2451-6.2072L149.371,79.4154z M295.5599,85.0265l-0.2451,6.2072l-33.7944-1.3341l0.2449-6.207L295.5599,85.0265z
		 M296.3031,11.2893c20.2383,0,40.0957,5.5234,57.427,15.9728l51.8433,31.2588l6.3887,12.1055
		c-1.9465,3.5148-5.7075,5.6327-9.7224,5.4749l-46.2056-1.895l0.0991-0.2585c0.5776-1.5088-0.1841-3.2158-1.6929-3.7935
		l-0.4756-0.1821c-1.5088-0.5776-3.2158,0.1842-3.7935,1.693l-0.3438,0.8973c-0.9866-0.1189-2.0125-0.037-3.0188,0.2922
		l-2.6438,0.8649l-34.1973-1.4025L299.578,62.056c-0.4084-0.4034-0.8567-0.7391-1.3279-1.0222
		c-1.5967-1.5059-3.5024-2.5334-5.6765-2.8171c-6.6201-0.865-15.2219,2.9758-19.332,12.5942l-18.5644-0.7615l-10.2266-58.6185
		L296.3031,11.2893z M70.9483,23.7723c3.6721-2.8748,5.6897-7.3013,5.5125-11.8826l24.7334-0.0676l-8.9958,51.564l-42.5825-1.7463
		c-4.2356-0.1665-7.9681-2.8324-9.4998-6.7852l-2.0619-5.3215L70.9483,23.7723z" id="id_133"></path>
	<path d="M490.0453,242.76c24.5174,0,44.3911-19.8777,44.3911-44.3951c0-1.3882-0.0706-2.7587-0.1941-4.1116
		c-2.0769-22.5906-21.0657-40.2839-44.1971-40.2839c-23.1357,0-42.127,17.6934-44.2014,40.2839
		c-0.1257,1.3529-0.1985,2.7234-0.1985,4.1116C445.6454,222.8823,465.5213,242.76,490.0453,242.76z M461.2186,198.365
		c0-0.8417,0.0425-1.7185,0.1323-2.682c1.3687-14.9053,13.7039-26.1409,28.6943-26.1409c14.9861,0,27.3199,11.2363,28.69,26.1372
		c0.0852,0.9398,0.1277,1.8226,0.1277,2.6857c0,15.8923-12.9268,28.8221-28.8177,28.8221
		C474.15,227.1871,461.2186,214.2573,461.2186,198.365z" id="id_134"></path>
	<path d="M490.0453,211.6141c7.303,0,13.2446-5.9432,13.2446-13.2491c0-0.3848-0.0212-0.8038-0.0623-1.26
		c-0.6282-6.8352-6.2961-11.9899-13.1824-11.9899c-6.8892,0-12.5586,5.1555-13.1882,12.012
		c-0.0442,0.4714-0.0654,0.876-0.0654,1.2379C476.7916,205.6709,482.7379,211.6141,490.0453,211.6141z" id="id_135"></path>
	<path d="M305.3082,55.0975c10.8474-1.2473,18.6279-11.0508,17.3806-21.8975c-1.2471-10.8467-11.0498-18.6282-21.8972-17.3809
		c-10.8459,1.2473-18.6282,11.0508-17.3809,21.8975S294.4622,56.3446,305.3082,55.0975z" id="id_136"></path>
</g>
</svg>